<svg id="svg" version="1.1" xmlns="http://www.w3.org/2000/svg" xmlns:xlink="http://www.w3.org/1999/xlink" width="400" height="144" viewBox="0, 0, 400,144"><g id="svgg"><path id="path0" d="M151.797 23.447 C 151.632 23.490,151.471 23.747,151.416 24.053 C 151.197 25.282,151.410 97.476,151.633 97.700 C 151.801 97.868,152.975 97.917,156.883 97.917 L 161.917 97.917 161.968 97.294 C 162.013 96.752,162.088 96.653,162.546 96.535 C 163.140 96.381,163.282 96.057,163.332 94.750 C 163.362 93.947,163.369 93.936,163.518 94.451 C 163.685 95.028,164.351 95.331,165.458 95.332 C 165.940 95.333,166.000 95.385,166.000 95.800 C 166.000 96.509,166.280 96.667,167.533 96.667 C 168.622 96.667,168.667 96.683,168.667 97.071 C 168.667 97.934,168.925 98.000,172.318 98.000 L 175.446 98.000 175.637 98.419 C 175.742 98.650,176.017 98.924,176.248 99.029 C 176.787 99.275,177.429 99.005,177.696 98.419 L 177.887 98.000 181.077 98.000 C 184.510 98.000,184.667 97.962,184.667 97.140 C 184.667 96.682,184.671 96.681,185.957 96.632 C 187.055 96.591,187.255 96.538,187.305 96.277 C 187.417 95.690,187.959 95.333,188.738 95.333 C 189.575 95.333,190.000 95.021,190.000 94.405 C 190.000 94.073,190.084 94.000,190.467 94.000 C 191.059 94.000,191.333 93.726,191.333 93.133 C 191.333 92.733,191.400 92.667,191.800 92.667 C 192.392 92.667,192.667 92.392,192.667 91.800 C 192.667 91.417,192.739 91.333,193.071 91.333 C 193.760 91.333,194.000 90.923,194.000 89.748 L 194.000 88.687 194.625 88.635 C 195.232 88.585,195.252 88.563,195.301 87.875 C 195.346 87.260,195.403 87.167,195.739 87.167 C 196.381 87.167,196.546 86.765,196.631 84.994 C 196.702 83.522,196.747 83.331,197.022 83.313 C 198.019 83.246,197.951 83.457,197.979 80.333 L 198.000 78.000 198.405 78.000 C 199.348 78.000,199.334 78.121,199.331 70.196 C 199.328 61.998,199.349 62.216,198.565 62.069 L 198.000 61.963 198.000 59.826 C 198.000 57.331,197.887 56.908,197.177 56.752 C 196.669 56.641,196.667 56.634,196.667 55.520 C 196.667 54.280,196.507 54.000,195.800 54.000 C 195.357 54.000,195.333 53.960,195.317 53.208 C 195.290 51.955,195.140 51.619,194.536 51.463 C 194.095 51.348,194.000 51.242,194.000 50.862 C 194.000 50.274,193.724 50.000,193.133 50.000 C 192.733 50.000,192.667 49.933,192.667 49.533 C 192.667 48.941,192.392 48.667,191.800 48.667 C 191.400 48.667,191.333 48.600,191.333 48.200 C 191.333 47.538,191.049 47.333,190.133 47.333 C 189.290 47.333,188.754 46.995,188.638 46.390 C 188.588 46.129,188.388 46.076,187.290 46.035 C 186.005 45.986,186.000 45.984,186.000 45.526 C 186.000 44.656,186.087 44.667,178.925 44.669 C 171.377 44.672,171.549 44.654,171.402 45.435 L 171.296 46.000 170.181 46.000 C 168.947 46.000,168.667 46.161,168.667 46.867 C 168.667 47.295,168.615 47.333,168.042 47.334 C 167.326 47.335,166.410 47.828,166.263 48.293 C 166.203 48.482,165.915 48.671,165.545 48.763 C 165.051 48.886,164.898 49.022,164.777 49.444 C 164.658 49.863,164.514 49.992,164.075 50.074 C 163.754 50.134,163.491 50.297,163.447 50.464 C 163.406 50.621,163.363 44.581,163.353 37.042 L 163.333 23.333 157.708 23.353 C 154.615 23.363,151.955 23.406,151.797 23.447 M111.597 44.927 C 111.452 45.072,111.333 45.373,111.333 45.595 C 111.333 45.987,111.295 46.000,110.103 46.000 C 108.894 46.000,108.862 46.011,108.187 46.667 C 107.667 47.171,107.366 47.333,106.950 47.333 C 106.280 47.333,106.000 47.586,106.000 48.190 C 106.000 48.597,105.933 48.652,105.375 48.698 C 104.786 48.747,104.747 48.785,104.699 49.366 C 104.651 49.944,104.610 49.984,104.032 50.032 C 103.454 50.080,103.414 50.121,103.366 50.699 C 103.317 51.277,103.277 51.317,102.699 51.366 C 102.121 51.414,102.080 51.454,102.032 52.032 C 101.984 52.610,101.944 52.651,101.366 52.699 C 100.770 52.748,100.748 52.773,100.699 53.458 C 100.654 54.073,100.597 54.167,100.261 54.167 C 99.702 54.167,99.514 54.487,99.393 55.643 C 99.291 56.615,99.258 56.677,98.773 56.802 C 98.163 56.960,98.040 57.297,98.017 58.875 C 98.000 60.032,97.861 60.309,97.069 60.768 C 96.771 60.940,96.747 61.214,96.705 64.893 L 96.661 68.833 96.267 68.833 C 94.996 68.833,95.040 73.339,96.315 73.744 C 96.621 73.841,96.642 74.055,96.695 77.565 C 96.754 81.543,96.815 81.833,97.597 81.833 C 97.970 81.833,97.989 81.892,98.035 83.208 L 98.083 84.583 98.701 84.635 L 99.320 84.686 99.368 85.968 L 99.417 87.250 100.042 87.302 C 100.649 87.352,100.667 87.372,100.667 88.010 C 100.667 88.371,100.734 88.667,100.815 88.667 C 100.897 88.667,101.011 88.853,101.068 89.081 C 101.132 89.336,101.330 89.535,101.586 89.599 C 101.865 89.669,102.001 89.820,102.002 90.060 C 102.007 90.855,102.196 91.157,102.753 91.262 C 103.216 91.348,103.319 91.454,103.408 91.931 C 103.503 92.438,103.586 92.510,104.174 92.604 C 104.715 92.690,104.833 92.776,104.833 93.084 C 104.833 93.578,105.097 93.770,105.976 93.915 C 106.740 94.042,107.264 94.430,107.361 94.943 C 107.406 95.179,107.598 95.262,108.194 95.300 C 108.836 95.342,108.984 95.414,109.062 95.724 C 109.200 96.276,110.235 96.667,111.556 96.667 C 112.621 96.667,112.667 96.683,112.667 97.071 C 112.667 97.957,112.868 98.000,116.975 98.000 L 120.760 98.000 120.946 98.492 C 121.152 99.038,121.728 99.271,122.434 99.094 C 122.708 99.025,122.936 98.804,123.054 98.492 L 123.240 98.000 127.753 98.000 C 132.606 98.000,132.667 97.989,132.667 97.133 L 132.667 96.667 135.070 96.667 C 137.603 96.667,138.000 96.608,138.000 96.232 C 138.000 95.981,138.422 95.528,138.931 95.231 C 139.330 94.999,139.434 86.700,139.043 86.309 C 138.672 85.939,135.439 86.010,135.364 86.390 C 135.215 87.139,134.810 87.287,132.703 87.362 C 130.554 87.439,130.167 87.578,130.167 88.270 L 130.167 88.667 124.102 88.667 L 118.037 88.667 117.931 88.102 C 117.810 87.455,117.550 87.339,116.208 87.336 C 115.394 87.333,115.333 87.305,115.333 86.929 C 115.333 86.384,114.915 86.000,114.321 86.000 C 113.923 86.000,113.833 85.929,113.833 85.617 C 113.833 85.128,113.538 84.833,113.050 84.833 C 112.727 84.833,112.667 84.746,112.667 84.283 C 112.667 83.611,112.414 83.333,111.800 83.333 C 111.372 83.333,111.333 83.282,111.333 82.708 C 111.332 81.975,110.835 81.076,110.345 80.920 C 110.076 80.835,110.000 80.672,110.000 80.176 C 110.000 79.660,109.874 79.411,109.333 78.853 L 108.667 78.166 108.667 76.083 L 108.667 74.000 123.800 74.000 C 135.348 74.000,138.981 73.953,139.133 73.800 C 139.353 73.581,139.400 64.776,139.186 64.009 C 139.109 63.733,138.900 63.557,138.536 63.463 L 138.000 63.324 138.000 60.885 C 138.000 58.169,137.769 57.241,137.049 57.060 C 136.692 56.970,136.667 56.879,136.667 55.682 C 136.667 54.272,136.526 54.000,135.800 54.000 C 135.352 54.000,135.333 53.967,135.333 53.178 C 135.333 52.017,135.118 51.552,134.519 51.421 C 134.087 51.326,134.012 51.227,133.968 50.697 C 133.920 50.121,133.879 50.080,133.301 50.032 C 132.723 49.984,132.683 49.944,132.634 49.366 C 132.586 48.787,132.546 48.747,131.968 48.699 C 131.390 48.651,131.349 48.610,131.301 48.032 C 131.252 47.438,131.226 47.415,130.550 47.366 C 130.021 47.327,129.824 47.233,129.743 46.979 C 129.562 46.406,128.685 46.001,127.625 46.001 C 126.616 46.000,126.096 45.703,125.971 45.057 C 125.886 44.616,112.033 44.490,111.597 44.927 M270.200 44.867 C 270.090 44.977,270.000 45.277,270.000 45.533 L 270.000 46.000 268.708 46.001 C 267.303 46.001,266.460 46.338,266.257 46.979 C 266.176 47.233,265.979 47.327,265.450 47.366 C 264.774 47.415,264.748 47.438,264.699 48.032 C 264.651 48.610,264.610 48.651,264.032 48.699 C 263.452 48.747,263.414 48.786,263.365 49.375 C 263.315 49.983,263.295 50.000,262.657 50.000 C 262.111 50.000,262.000 50.056,262.000 50.333 C 262.000 50.763,261.429 51.333,261.000 51.333 C 260.723 51.333,260.667 51.444,260.667 51.990 C 260.667 52.628,260.649 52.648,260.042 52.698 C 259.454 52.747,259.414 52.786,259.366 53.358 C 259.321 53.901,259.256 53.977,258.759 54.071 C 258.122 54.190,258.006 54.455,258.002 55.792 C 258.000 56.606,257.972 56.667,257.595 56.667 C 256.897 56.667,256.667 57.074,256.667 58.309 C 256.667 59.391,256.651 59.433,256.180 59.611 C 255.466 59.880,255.335 60.603,255.334 64.292 L 255.333 67.500 254.937 67.500 C 254.192 67.500,254.088 67.862,254.025 70.654 C 253.956 73.721,254.115 74.558,254.842 74.972 L 255.331 75.250 255.332 78.363 C 255.333 81.735,255.401 82.000,256.255 82.000 C 256.636 82.000,256.655 82.055,256.701 83.290 C 256.743 84.388,256.796 84.588,257.057 84.638 C 257.673 84.756,257.981 85.275,258.033 86.283 L 258.083 87.250 258.688 87.301 L 259.292 87.351 259.409 88.382 C 259.542 89.554,259.707 89.833,260.270 89.833 C 260.608 89.833,260.667 89.915,260.667 90.383 C 260.667 91.056,260.920 91.333,261.533 91.333 C 261.916 91.333,262.000 91.406,262.000 91.738 C 262.000 92.254,262.410 92.667,262.924 92.667 C 263.234 92.667,263.355 92.787,263.463 93.203 C 263.577 93.644,263.717 93.769,264.259 93.911 C 264.621 94.006,265.213 94.365,265.574 94.709 C 266.089 95.198,266.365 95.333,266.845 95.333 C 267.390 95.333,267.469 95.388,267.556 95.824 C 267.679 96.436,268.376 96.664,270.125 96.666 L 271.333 96.667 271.333 97.133 C 271.333 97.978,271.440 98.000,275.580 98.000 L 279.427 98.000 279.613 98.492 C 279.730 98.804,279.958 99.025,280.233 99.094 C 280.939 99.271,281.514 99.038,281.721 98.492 L 281.906 98.000 286.358 98.000 C 291.192 98.000,291.333 97.974,291.333 97.071 L 291.333 96.667 293.800 96.667 C 296.511 96.667,296.667 96.615,296.667 95.717 C 296.667 95.285,296.736 95.167,296.988 95.167 C 297.773 95.167,297.833 94.878,297.833 91.096 C 297.833 87.042,297.759 86.679,296.855 86.279 C 295.632 85.740,294.318 85.893,293.520 86.667 L 292.833 87.333 291.375 87.353 C 289.279 87.381,288.938 87.480,288.833 88.085 L 288.747 88.583 282.712 88.627 L 276.677 88.671 276.538 88.132 C 276.381 87.529,276.046 87.376,274.810 87.350 C 274.063 87.334,274.033 87.314,273.928 86.751 C 273.830 86.231,273.750 86.157,273.178 86.066 C 272.720 85.993,272.485 85.849,272.354 85.563 C 272.254 85.342,271.983 85.076,271.752 84.971 C 271.452 84.834,271.333 84.650,271.333 84.318 C 271.333 83.753,270.942 83.333,270.415 83.333 C 270.079 83.333,270.012 83.240,269.968 82.710 C 269.931 82.261,269.831 82.070,269.610 82.028 C 269.005 81.913,268.667 81.377,268.667 80.533 C 268.667 79.617,268.462 79.333,267.800 79.333 L 267.333 79.333 267.333 76.930 C 267.333 75.609,267.288 74.409,267.232 74.264 C 267.140 74.024,268.537 74.000,282.304 74.000 C 296.219 74.000,297.499 73.977,297.753 73.723 C 297.999 73.477,298.023 72.997,297.973 69.415 C 297.913 65.095,297.861 64.833,297.063 64.833 L 296.667 64.833 296.667 61.617 C 296.667 58.151,296.631 58.000,295.800 58.000 L 295.333 58.000 295.333 56.262 C 295.333 54.368,295.182 54.000,294.405 54.000 C 294.059 54.000,294.000 53.920,293.999 53.458 C 293.997 52.359,293.689 51.663,293.157 51.556 C 292.738 51.473,292.667 51.382,292.667 50.929 C 292.667 50.277,292.409 50.000,291.800 50.000 C 291.400 50.000,291.333 49.933,291.333 49.533 C 291.333 48.941,291.059 48.667,290.467 48.667 C 290.067 48.667,290.000 48.600,290.000 48.200 C 290.000 47.586,289.723 47.333,289.050 47.333 C 288.634 47.333,288.333 47.171,287.813 46.667 C 287.138 46.011,287.106 46.000,285.897 46.000 L 284.667 46.000 284.667 45.533 C 284.667 45.277,284.577 44.977,284.467 44.867 C 284.179 44.579,270.488 44.579,270.200 44.867 M122.032 54.625 C 122.081 55.216,122.117 55.253,122.708 55.302 C 123.240 55.346,123.333 55.412,123.333 55.748 C 123.333 56.257,123.748 56.667,124.262 56.667 C 124.594 56.667,124.667 56.750,124.667 57.133 C 124.667 57.724,124.941 58.000,125.526 58.000 C 125.984 58.000,125.986 58.005,126.035 59.290 C 126.076 60.388,126.129 60.588,126.390 60.638 C 127.152 60.784,127.333 61.238,127.333 63.000 L 127.333 64.667 118.000 64.667 L 108.667 64.667 108.667 63.000 C 108.667 61.238,108.848 60.783,109.610 60.639 C 109.841 60.595,109.929 60.403,109.968 59.863 C 110.010 59.292,110.153 59.009,110.677 58.470 C 111.173 57.958,111.333 57.658,111.333 57.240 C 111.333 56.721,111.372 56.684,111.958 56.635 C 112.549 56.586,112.586 56.549,112.635 55.958 C 112.685 55.360,112.713 55.333,113.302 55.326 C 113.801 55.319,114.026 55.196,114.500 54.667 L 115.083 54.015 118.532 54.008 L 121.980 54.000 122.032 54.625 M280.698 54.625 C 280.747 55.216,280.784 55.253,281.375 55.302 C 281.933 55.348,282.000 55.403,282.000 55.810 C 282.000 56.390,282.277 56.667,282.857 56.667 C 283.264 56.667,283.319 56.734,283.365 57.292 C 283.413 57.878,283.454 57.920,284.020 57.967 L 284.623 58.018 284.702 59.669 C 284.788 61.437,284.952 61.833,285.604 61.833 C 285.990 61.833,286.000 61.869,286.000 63.250 L 286.000 64.667 276.667 64.667 L 267.333 64.667 267.333 62.677 L 267.333 60.687 267.958 60.635 L 268.583 60.583 268.632 59.301 L 268.680 58.019 269.299 57.968 C 269.880 57.920,269.920 57.880,269.968 57.301 C 270.016 56.723,270.056 56.683,270.634 56.634 C 271.213 56.586,271.253 56.546,271.301 55.968 C 271.349 55.390,271.390 55.349,271.966 55.301 C 272.406 55.265,272.597 55.163,272.639 54.943 C 272.805 54.066,272.980 54.029,276.948 54.014 L 280.647 54.000 280.698 54.625 M180.667 55.738 C 180.667 56.247,181.075 56.667,181.571 56.667 C 181.858 56.667,181.990 56.800,182.106 57.208 C 182.230 57.643,182.380 57.780,182.865 57.901 C 183.345 58.020,183.488 58.149,183.564 58.529 C 183.637 58.896,183.777 59.030,184.163 59.108 C 184.648 59.205,184.667 59.242,184.667 60.093 C 184.667 61.322,184.873 61.779,185.490 61.914 L 186.000 62.026 186.020 64.055 C 186.046 66.742,186.120 67.058,186.751 67.167 L 187.250 67.253 187.295 70.672 L 187.340 74.091 186.850 74.276 C 186.160 74.536,186.002 75.267,186.001 78.190 L 186.000 80.630 185.435 80.736 C 184.760 80.862,184.672 81.099,184.669 82.792 C 184.667 84.064,184.419 84.563,183.723 84.695 C 183.504 84.736,183.402 84.927,183.366 85.367 C 183.317 85.944,183.277 85.984,182.699 86.032 C 182.121 86.080,182.080 86.121,182.032 86.699 C 181.984 87.277,181.944 87.317,181.367 87.366 C 180.927 87.402,180.736 87.504,180.695 87.723 C 180.522 88.635,180.349 88.667,175.595 88.667 C 171.287 88.667,171.187 88.659,171.080 88.322 C 170.924 87.831,170.025 87.335,169.292 87.334 C 168.741 87.333,168.667 87.285,168.667 86.929 C 168.667 86.313,168.242 86.000,167.405 86.000 C 166.625 86.000,166.083 85.643,165.972 85.057 C 165.930 84.836,165.739 84.735,165.290 84.698 C 164.734 84.652,164.667 84.597,164.667 84.190 C 164.667 83.607,164.389 83.333,163.800 83.333 L 163.333 83.333 163.333 72.677 L 163.333 62.020 163.958 61.968 C 164.547 61.920,164.586 61.881,164.634 61.301 C 164.683 60.723,164.723 60.683,165.301 60.634 C 165.879 60.586,165.920 60.546,165.968 59.968 C 166.016 59.390,166.056 59.349,166.633 59.301 C 167.073 59.265,167.264 59.163,167.305 58.943 C 167.417 58.357,167.959 58.000,168.738 58.000 C 169.575 58.000,170.000 57.687,170.000 57.071 C 170.000 56.695,170.060 56.667,170.875 56.664 C 172.216 56.661,172.476 56.545,172.598 55.898 L 172.704 55.333 176.685 55.333 L 180.667 55.333 180.667 55.738 " stroke="none" fill="#fc7531" fill-rule="evenodd"></path><path id="path1" d="M11.444 27.444 C 11.300 27.589,11.332 32.792,11.480 33.324 C 11.556 33.596,11.766 33.776,12.111 33.866 L 12.629 34.000 12.692 36.311 C 12.760 38.790,12.881 39.167,13.604 39.167 C 13.997 39.167,14.000 39.179,14.001 41.042 C 14.002 43.399,14.190 44.141,14.847 44.389 L 15.333 44.573 15.333 46.516 L 15.333 48.460 16.000 49.147 L 16.667 49.834 16.667 51.653 C 16.667 53.609,16.739 54.000,17.101 54.000 C 17.809 54.000,18.000 54.583,18.000 56.736 C 18.000 58.940,18.066 59.333,18.434 59.333 C 19.142 59.333,19.333 59.916,19.333 62.071 C 19.333 64.323,19.456 64.667,20.262 64.667 L 20.667 64.667 20.667 67.071 C 20.667 69.682,20.767 70.000,21.595 70.000 L 22.000 70.000 22.000 72.156 C 22.000 74.669,22.112 75.092,22.823 75.248 L 23.333 75.360 23.353 77.388 C 23.379 80.076,23.453 80.391,24.085 80.500 L 24.583 80.586 24.673 82.941 C 24.769 85.458,24.890 85.833,25.604 85.833 C 25.998 85.833,26.000 85.843,26.000 87.755 C 26.000 89.912,26.223 90.714,26.908 91.026 C 27.329 91.218,27.333 91.241,27.333 93.173 L 27.333 95.126 28.000 95.813 C 28.511 96.339,28.667 96.632,28.667 97.063 C 28.667 97.373,28.772 97.713,28.900 97.819 C 29.174 98.047,40.215 98.008,40.445 97.778 C 40.521 97.702,40.621 96.802,40.667 95.779 L 40.750 93.919 41.249 93.833 C 41.882 93.724,41.954 93.412,41.980 90.662 L 42.000 88.573 42.487 88.389 C 43.144 88.141,43.331 87.399,43.332 85.042 L 43.333 83.167 44.000 82.480 L 44.667 81.793 44.667 79.563 C 44.667 77.193,44.700 77.085,45.598 76.565 C 45.886 76.398,45.921 76.139,45.963 73.857 L 46.009 71.333 46.409 71.333 C 47.231 71.333,47.333 71.012,47.333 68.418 L 47.333 66.026 47.843 65.914 C 48.558 65.758,48.667 65.338,48.667 62.739 L 48.667 60.500 49.063 60.500 C 49.799 60.500,49.911 60.129,49.976 57.489 C 50.033 55.120,50.049 55.024,50.400 54.936 C 50.879 54.815,51.328 53.779,51.353 52.736 C 51.363 52.285,51.406 52.045,51.447 52.203 C 51.492 52.372,51.757 52.533,52.095 52.596 L 52.667 52.704 52.667 55.088 C 52.667 57.603,52.726 58.000,53.101 58.000 C 53.816 58.000,53.962 58.521,54.024 61.290 C 54.088 64.142,54.190 64.500,54.937 64.500 L 55.333 64.500 55.333 66.988 C 55.333 69.689,55.429 70.000,56.262 70.000 L 56.667 70.000 56.667 72.563 L 56.667 75.126 57.333 75.813 L 58.000 76.500 58.017 78.709 C 58.037 81.432,58.101 81.690,58.797 81.871 L 59.333 82.010 59.333 84.410 C 59.333 87.015,59.434 87.333,60.262 87.333 L 60.667 87.333 60.667 89.839 C 60.667 92.598,60.844 93.360,61.561 93.687 C 61.958 93.868,61.974 93.941,62.028 95.757 C 62.058 96.793,62.146 97.702,62.222 97.778 C 62.452 98.008,73.492 98.047,73.767 97.819 C 73.895 97.713,74.000 97.373,74.000 97.063 C 74.000 96.581,74.057 96.500,74.396 96.500 C 75.119 96.500,75.240 96.123,75.308 93.645 L 75.371 91.333 75.819 91.333 C 76.573 91.333,76.667 91.084,76.667 89.087 L 76.667 87.240 77.153 87.056 C 77.805 86.810,77.998 86.066,77.999 83.792 C 78.000 82.006,78.001 82.000,78.405 82.000 C 79.190 82.000,79.333 81.638,79.333 79.655 L 79.333 77.834 80.000 77.147 L 80.667 76.460 80.667 74.582 L 80.667 72.704 81.232 72.598 C 81.942 72.465,81.995 72.277,81.998 69.875 C 82.000 67.929,82.211 67.333,82.899 67.333 C 83.258 67.333,83.333 66.944,83.333 65.074 L 83.333 63.343 83.870 63.204 C 84.563 63.024,84.629 62.761,84.650 60.125 L 84.667 58.000 85.133 58.000 C 85.909 58.000,86.000 57.761,86.000 55.738 L 86.000 53.875 86.490 53.777 C 87.150 53.645,87.331 52.950,87.332 50.542 C 87.333 48.668,87.334 48.667,87.738 48.667 C 88.529 48.667,88.667 48.309,88.667 46.256 C 88.667 44.428,88.679 44.366,89.049 44.274 C 89.704 44.109,90.000 43.129,90.000 41.129 L 90.000 39.370 90.565 39.264 C 91.275 39.131,91.328 38.943,91.331 36.542 C 91.333 34.555,91.493 34.122,92.277 33.971 C 92.554 33.918,92.588 33.692,92.630 31.585 C 92.667 29.746,92.728 29.229,92.922 29.121 C 93.232 28.947,93.240 28.392,92.935 28.217 C 92.808 28.143,92.676 27.933,92.641 27.750 C 92.581 27.426,92.447 27.417,87.998 27.417 L 83.417 27.417 83.365 28.042 C 83.319 28.599,83.264 28.667,82.857 28.667 C 82.092 28.667,82.000 28.911,82.000 30.929 L 82.000 32.792 81.510 32.890 C 80.850 33.022,80.669 33.717,80.668 36.125 C 80.667 37.999,80.666 38.000,80.262 38.000 C 79.479 38.000,79.333 38.364,79.333 40.318 C 79.333 42.081,79.326 42.117,78.908 42.307 C 78.231 42.616,78.000 43.425,78.000 45.495 C 78.000 47.330,77.999 47.333,77.595 47.333 C 76.804 47.333,76.667 47.691,76.667 49.744 C 76.667 51.572,76.655 51.634,76.284 51.726 C 75.630 51.891,75.333 52.871,75.333 54.871 L 75.333 56.630 74.768 56.736 C 74.069 56.867,74.005 57.073,74.002 59.208 L 74.000 60.833 73.333 61.520 L 72.667 62.207 72.667 64.090 L 72.667 65.974 72.157 66.086 C 71.462 66.238,71.333 66.670,71.333 68.844 C 71.333 70.734,71.117 71.333,70.434 71.333 C 70.075 71.333,70.001 71.721,69.993 73.639 C 69.987 75.309,69.973 75.384,69.754 74.881 C 69.609 74.547,69.360 74.305,69.094 74.238 L 68.667 74.131 68.664 71.857 C 68.662 69.030,68.623 68.871,67.898 68.736 L 67.333 68.630 67.333 66.245 C 67.333 63.730,67.274 63.333,66.899 63.333 C 66.184 63.333,66.038 62.813,65.976 60.043 C 65.912 57.192,65.810 56.833,65.063 56.833 L 64.667 56.833 64.667 54.345 C 64.667 51.645,64.571 51.333,63.738 51.333 L 63.333 51.333 63.333 48.770 L 63.333 46.207 62.667 45.520 L 62.000 44.833 61.980 42.708 C 61.954 39.920,61.884 39.610,61.249 39.500 L 60.750 39.414 60.667 36.867 C 60.578 34.157,60.528 34.008,59.708 34.003 C 59.336 34.000,59.333 33.981,59.333 31.495 C 59.333 27.156,59.620 27.333,52.592 27.333 C 49.623 27.333,47.333 27.398,47.333 27.482 C 47.333 27.564,47.161 27.674,46.951 27.726 C 46.259 27.900,46.000 28.854,46.000 31.223 C 46.000 33.420,45.812 34.000,45.101 34.000 C 44.725 34.000,44.667 34.397,44.667 36.930 L 44.667 39.333 44.262 39.333 C 43.435 39.333,43.333 39.653,43.333 42.243 L 43.333 44.630 42.768 44.736 C 42.043 44.872,42.005 45.029,42.002 47.875 L 42.000 50.167 41.604 50.167 C 40.875 50.167,40.758 50.541,40.692 53.088 C 40.632 55.418,40.623 55.466,40.223 55.649 C 39.535 55.962,39.333 56.757,39.333 59.161 C 39.333 61.425,39.151 62.000,38.434 62.000 C 38.059 62.000,38.000 62.397,38.000 64.930 L 38.000 67.333 37.595 67.333 C 36.769 67.333,36.667 67.653,36.667 70.243 L 36.667 72.630 36.084 72.739 C 35.561 72.837,35.491 72.915,35.396 73.506 L 35.291 74.163 34.646 73.498 L 34.000 72.833 34.000 71.013 C 34.000 69.057,33.928 68.667,33.566 68.667 C 32.852 68.667,32.667 68.089,32.667 65.867 C 32.667 63.555,32.591 63.333,31.800 63.333 L 31.333 63.333 31.333 60.929 C 31.333 58.318,31.233 58.000,30.405 58.000 L 30.000 58.000 29.998 55.792 C 29.995 53.035,29.954 52.871,29.232 52.736 L 28.667 52.630 28.647 50.606 C 28.621 47.924,28.546 47.609,27.915 47.500 L 27.417 47.414 27.320 45.166 C 27.209 42.598,27.139 42.353,26.479 42.221 L 26.000 42.125 26.000 40.285 C 26.000 38.200,25.713 37.226,25.049 37.060 C 24.679 36.967,24.667 36.905,24.667 35.079 C 24.667 33.058,24.596 32.667,24.232 32.667 C 23.525 32.667,23.333 32.084,23.333 29.929 C 23.333 28.268,23.281 27.805,23.071 27.595 C 22.798 27.322,11.710 27.178,11.444 27.444 M219.595 44.929 C 219.451 45.073,219.333 45.373,219.333 45.595 C 219.333 45.984,219.289 46.000,218.200 46.000 C 216.946 46.000,216.667 46.158,216.667 46.867 C 216.667 47.332,216.663 47.333,215.533 47.333 C 214.280 47.333,214.000 47.491,214.000 48.200 C 214.000 48.600,213.933 48.667,213.533 48.667 C 212.942 48.667,212.667 48.941,212.667 49.529 C 212.667 49.909,212.572 50.015,212.130 50.129 C 211.575 50.273,211.383 50.620,211.350 51.542 C 211.332 52.046,210.868 52.604,210.390 52.695 C 210.113 52.749,210.079 52.973,210.037 55.048 C 209.990 57.369,209.805 58.000,209.173 58.000 C 208.293 58.000,208.689 61.374,209.594 61.601 C 209.982 61.698,209.991 61.746,210.037 63.809 L 210.083 65.917 210.708 65.968 L 211.333 66.020 211.333 67.081 C 211.333 68.256,211.574 68.667,212.262 68.667 C 212.594 68.667,212.667 68.750,212.667 69.133 C 212.667 69.720,212.940 70.000,213.515 70.000 C 213.895 70.000,213.979 70.088,214.072 70.583 C 214.170 71.106,214.248 71.176,214.841 71.271 C 215.382 71.357,215.500 71.443,215.500 71.751 C 215.500 72.298,215.826 72.487,216.977 72.607 C 217.948 72.709,218.010 72.742,218.136 73.227 C 218.285 73.803,218.637 73.957,219.856 73.983 C 220.599 73.999,220.634 74.022,220.736 74.565 C 220.859 75.226,221.109 75.328,222.607 75.331 C 223.534 75.333,223.640 75.369,223.726 75.716 C 223.852 76.214,224.880 76.667,225.889 76.667 C 226.709 76.667,227.248 77.012,227.361 77.610 C 227.403 77.829,227.593 77.931,228.026 77.967 C 228.568 78.013,228.644 78.078,228.737 78.574 C 228.857 79.210,229.122 79.328,230.448 79.331 L 231.313 79.333 231.365 79.958 C 231.414 80.549,231.451 80.586,232.042 80.635 L 232.667 80.687 232.667 83.333 L 232.667 85.980 232.042 86.032 C 231.453 86.080,231.414 86.119,231.366 86.699 C 231.317 87.277,231.277 87.317,230.700 87.366 C 230.261 87.402,230.070 87.504,230.028 87.723 C 229.852 88.648,229.743 88.667,224.338 88.667 L 219.343 88.667 219.204 88.130 C 219.033 87.470,218.731 87.372,216.802 87.350 L 215.353 87.333 215.302 86.708 L 215.250 86.083 213.961 86.035 L 212.673 85.986 212.535 85.457 C 212.371 84.822,212.050 84.706,210.387 84.683 C 208.549 84.658,208.654 84.313,208.706 90.223 L 208.750 95.250 209.375 95.302 C 209.907 95.346,210.000 95.412,210.000 95.748 C 210.000 96.543,210.350 96.667,212.595 96.667 C 214.751 96.667,215.333 96.858,215.333 97.566 C 215.333 97.959,215.739 98.000,219.680 98.000 L 223.500 98.000 223.500 98.383 C 223.500 99.015,223.813 99.167,225.124 99.167 C 226.347 99.167,227.167 98.769,227.167 98.174 C 227.167 98.059,228.257 98.000,230.383 98.000 C 233.849 98.000,234.000 97.964,234.000 97.133 C 234.000 96.668,234.003 96.667,235.133 96.667 C 236.387 96.667,236.667 96.509,236.667 95.800 C 236.667 95.337,236.676 95.333,237.738 95.333 C 238.919 95.333,239.333 95.095,239.333 94.415 C 239.333 94.079,239.427 94.012,239.958 93.968 C 240.547 93.920,240.586 93.881,240.634 93.301 C 240.683 92.723,240.723 92.683,241.301 92.634 C 241.879 92.586,241.920 92.546,241.968 91.970 C 242.012 91.439,242.087 91.341,242.519 91.246 C 243.129 91.112,243.333 90.649,243.333 89.406 C 243.333 88.563,243.361 88.500,243.730 88.500 C 244.555 88.500,244.580 88.339,244.635 82.580 C 244.692 76.720,244.684 76.667,243.738 76.667 C 243.351 76.667,243.333 76.619,243.333 75.595 C 243.333 74.415,243.095 74.000,242.415 74.000 C 242.079 74.000,242.012 73.907,241.968 73.375 C 241.920 72.786,241.881 72.747,241.301 72.699 C 240.723 72.651,240.683 72.610,240.634 72.032 C 240.586 71.452,240.547 71.414,239.958 71.365 C 239.401 71.319,239.333 71.264,239.333 70.857 C 239.333 70.279,239.057 70.000,238.485 70.000 C 238.108 70.000,238.020 69.911,237.931 69.435 C 237.810 68.790,237.549 68.672,236.227 68.669 C 235.386 68.667,235.369 68.656,235.264 68.102 C 235.143 67.455,234.883 67.339,233.542 67.336 C 232.747 67.334,232.666 67.299,232.664 66.958 C 232.659 66.244,232.409 66.088,231.132 66.000 C 229.938 65.918,229.917 65.909,229.833 65.418 C 229.737 64.863,229.376 64.722,227.959 64.686 C 227.274 64.669,227.075 64.577,226.480 64.000 C 225.954 63.489,225.661 63.333,225.230 63.333 C 224.745 63.333,224.667 63.277,224.667 62.929 C 224.667 62.239,224.257 62.000,223.071 62.000 L 222.000 62.000 222.000 61.404 C 222.000 60.926,221.868 60.680,221.333 60.167 L 220.667 59.526 220.667 58.096 L 220.667 56.667 221.133 56.667 C 221.723 56.667,222.000 56.393,222.000 55.810 C 222.000 55.403,222.067 55.348,222.625 55.302 C 223.216 55.253,223.253 55.216,223.302 54.625 L 223.353 54.000 228.677 54.000 L 234.000 54.000 234.000 54.405 C 234.000 55.265,234.263 55.333,237.595 55.333 L 240.667 55.333 240.667 50.667 L 240.667 46.000 239.667 46.000 C 238.681 46.000,238.000 45.658,238.000 45.163 C 238.000 44.586,220.164 44.359,219.595 44.929 M330.113 44.775 C 330.051 44.838,330.000 44.989,330.000 45.111 C 330.000 45.646,329.353 46.000,328.375 46.001 C 327.309 46.001,326.438 46.407,326.254 46.989 C 326.177 47.231,326.003 47.333,325.667 47.333 C 325.084 47.333,324.667 47.721,324.667 48.262 C 324.667 48.594,324.583 48.667,324.200 48.667 C 323.608 48.667,323.333 48.941,323.333 49.533 C 323.333 49.933,323.267 50.000,322.867 50.000 C 322.610 50.000,322.310 50.090,322.200 50.200 C 322.044 50.356,322.000 49.911,322.000 48.200 L 322.000 46.000 316.187 46.000 C 311.466 46.000,310.339 46.043,310.184 46.229 C 309.819 46.669,310.012 97.250,310.381 97.619 C 310.820 98.059,321.298 98.178,321.728 97.748 C 321.976 97.500,322.000 96.001,322.000 80.738 C 322.000 62.317,321.936 63.496,322.943 63.305 C 323.164 63.264,323.265 63.072,323.302 62.624 C 323.348 62.068,323.403 62.000,323.810 62.000 C 324.414 62.000,324.667 61.720,324.667 61.050 C 324.667 60.587,324.727 60.500,325.050 60.500 C 325.533 60.500,325.833 60.206,325.833 59.733 C 325.833 59.448,325.970 59.334,326.449 59.221 C 326.947 59.103,327.090 58.976,327.199 58.556 C 327.308 58.135,327.442 58.017,327.910 57.929 C 328.401 57.837,328.503 57.737,328.591 57.266 C 328.693 56.725,328.721 56.708,329.706 56.606 C 330.851 56.486,331.167 56.297,331.167 55.732 L 331.167 55.339 335.875 55.294 L 340.583 55.250 340.629 52.353 L 340.675 49.456 341.046 49.768 L 341.417 50.081 341.068 49.665 C 340.637 49.151,340.490 46.668,340.863 46.208 C 341.003 46.035,341.011 45.979,340.885 46.055 C 340.746 46.138,340.671 45.960,340.635 45.462 L 340.583 44.750 335.405 44.706 C 332.557 44.682,330.176 44.713,330.113 44.775 M342.293 53.277 C 342.408 53.324,342.453 53.442,342.392 53.540 C 342.327 53.645,342.361 53.670,342.474 53.599 C 342.580 53.534,342.667 53.572,342.667 53.685 C 342.667 53.797,342.715 53.841,342.774 53.782 C 342.914 53.642,342.514 53.163,342.271 53.180 C 342.154 53.188,342.162 53.225,342.293 53.277 M355.846 55.605 C 355.829 55.847,356.308 56.247,356.448 56.107 C 356.507 56.048,356.464 56.000,356.351 56.000 C 356.239 56.000,356.201 55.913,356.266 55.808 C 356.336 55.694,356.312 55.660,356.207 55.725 C 356.109 55.786,355.990 55.741,355.944 55.626 C 355.891 55.496,355.855 55.488,355.846 55.605 M385.019 59.730 C 384.804 59.959,384.712 60.175,384.806 60.233 C 385.041 60.378,385.457 60.186,385.576 59.876 C 385.756 59.407,385.407 59.316,385.019 59.730 M359.669 66.266 C 359.666 66.517,360.310 67.079,360.445 66.943 C 360.506 66.883,360.468 66.833,360.361 66.833 C 360.254 66.833,360.185 66.777,360.208 66.708 C 360.231 66.640,360.183 66.571,360.102 66.556 C 360.021 66.541,359.890 66.428,359.813 66.306 C 359.734 66.182,359.671 66.164,359.669 66.266 M382.582 66.668 C 382.416 66.852,382.329 67.052,382.390 67.112 C 382.450 67.173,382.500 67.135,382.500 67.028 C 382.500 66.921,382.567 66.852,382.650 66.875 C 382.732 66.898,382.801 66.850,382.802 66.769 C 382.804 66.687,382.905 66.557,383.027 66.480 C 383.152 66.401,383.169 66.337,383.067 66.336 C 382.967 66.334,382.749 66.484,382.582 66.668 M368.997 70.421 C 368.881 70.560,368.832 70.721,368.889 70.778 C 369.010 70.899,369.500 70.526,369.500 70.313 C 369.500 70.083,369.228 70.142,368.997 70.421 M379.997 73.421 C 379.881 73.560,379.832 73.721,379.889 73.778 C 380.010 73.899,380.500 73.526,380.500 73.313 C 380.500 73.083,380.228 73.142,379.997 73.421 M363.333 76.904 C 363.333 77.084,364.386 78.002,364.479 77.901 C 364.536 77.839,364.489 77.754,364.374 77.713 C 364.259 77.672,364.208 77.568,364.261 77.482 C 364.315 77.396,364.259 77.346,364.137 77.371 C 364.016 77.396,363.937 77.317,363.962 77.196 C 363.988 77.075,363.931 77.023,363.837 77.081 C 363.744 77.139,363.667 77.107,363.667 77.010 C 363.667 76.913,363.592 76.833,363.500 76.833 C 363.408 76.833,363.333 76.865,363.333 76.904 M367.000 77.010 C 367.000 77.107,366.923 77.139,366.829 77.081 C 366.735 77.023,366.679 77.075,366.704 77.196 C 366.729 77.317,366.651 77.396,366.529 77.371 C 366.408 77.346,366.352 77.396,366.405 77.482 C 366.459 77.568,366.408 77.672,366.293 77.713 C 366.178 77.754,366.130 77.839,366.188 77.901 C 366.246 77.964,366.527 77.781,366.813 77.495 C 367.372 76.936,367.427 76.833,367.167 76.833 C 367.075 76.833,367.000 76.913,367.000 77.010 M355.767 88.806 C 355.622 89.041,355.814 89.457,356.124 89.576 C 356.593 89.756,356.684 89.407,356.270 89.019 C 356.041 88.804,355.825 88.712,355.767 88.806 " stroke="none" fill="#2491ce" fill-rule="evenodd"></path><path id="path2" d="M340.847 46.234 C 340.623 46.504,340.640 49.297,340.867 49.438 C 340.943 49.485,340.955 49.604,340.894 49.704 C 340.829 49.808,340.859 49.837,340.963 49.773 C 341.062 49.712,341.193 49.741,341.253 49.837 C 341.312 49.934,341.499 49.970,341.668 49.916 C 341.944 49.829,341.982 49.954,342.058 51.201 C 342.104 51.961,342.160 52.686,342.182 52.812 C 342.241 53.149,342.996 53.855,343.177 53.743 C 343.268 53.687,343.334 54.121,343.336 54.782 C 343.338 56.141,343.459 56.667,343.769 56.667 C 344.364 56.667,344.623 57.261,344.704 58.816 C 344.794 60.528,344.784 60.504,345.439 60.553 L 345.917 60.590 345.966 61.912 C 345.993 62.639,346.093 63.328,346.189 63.443 C 346.284 63.558,346.330 63.712,346.291 63.784 C 346.192 63.968,346.696 64.417,347.000 64.417 C 347.187 64.417,347.260 64.648,347.292 65.333 C 347.356 66.763,347.489 67.333,347.758 67.333 C 348.373 67.333,348.642 67.933,348.688 69.412 C 348.732 70.817,348.883 71.212,349.398 71.264 C 349.500 71.274,349.668 71.294,349.771 71.308 C 349.887 71.324,349.999 71.928,350.062 72.875 C 350.192 74.825,350.300 75.188,350.747 75.170 C 351.323 75.147,351.333 75.170,351.333 76.424 C 351.333 77.715,351.378 77.831,352.199 78.662 C 352.593 79.060,352.652 79.262,352.682 80.309 C 352.719 81.555,352.875 81.852,353.548 81.954 C 354.003 82.024,353.958 81.878,354.049 83.583 C 354.141 85.300,354.220 85.747,354.433 85.758 C 355.207 85.800,355.333 86.002,355.333 87.190 C 355.333 88.005,355.409 88.433,355.583 88.607 C 355.721 88.745,355.833 88.801,355.833 88.733 C 355.833 88.664,356.010 88.774,356.226 88.977 C 356.560 89.291,356.623 89.525,356.651 90.548 C 356.703 92.480,356.722 92.529,357.462 92.628 C 358.037 92.705,357.981 92.533,358.014 94.327 C 358.044 95.975,358.456 96.847,359.091 96.604 C 359.260 96.539,359.340 96.635,359.354 96.922 C 359.411 98.037,359.178 97.990,364.591 97.990 C 369.336 97.989,370.088 97.944,369.919 97.670 C 369.803 97.484,370.565 96.711,370.935 96.639 C 371.287 96.572,371.284 96.584,371.313 95.095 C 371.333 94.014,371.482 93.799,372.234 93.758 C 372.441 93.747,372.534 93.293,372.620 91.861 C 372.695 90.620,373.009 90.000,373.564 90.000 C 373.863 90.000,373.995 89.480,373.998 88.286 C 374.000 87.309,374.071 87.200,374.765 87.098 C 375.118 87.047,375.168 86.833,375.282 84.917 C 375.385 83.175,375.319 83.369,375.836 83.298 C 376.534 83.203,376.615 83.054,376.651 81.802 C 376.691 80.426,376.656 80.525,377.131 80.453 C 377.786 80.352,377.836 80.212,377.952 78.125 C 378.023 76.841,378.071 76.664,378.350 76.646 C 379.298 76.584,379.281 76.615,379.313 74.819 C 379.327 74.006,379.393 73.659,379.527 73.703 C 379.778 73.787,380.453 73.140,380.373 72.892 C 380.339 72.787,380.391 72.651,380.489 72.590 C 380.589 72.528,380.667 71.940,380.667 71.240 C 380.667 70.249,380.717 70.000,380.917 70.000 C 381.356 70.000,381.412 69.981,381.682 69.736 C 381.866 69.570,381.959 69.153,381.984 68.380 C 382.017 67.337,382.059 67.226,382.625 66.677 C 383.207 66.112,383.233 66.035,383.302 64.721 C 383.372 63.402,383.569 62.983,383.996 63.248 C 384.186 63.365,384.558 62.870,384.599 62.444 C 384.619 62.246,384.653 61.617,384.677 61.046 C 384.713 60.154,385.479 58.660,385.505 59.429 C 385.533 60.239,386.000 58.703,386.000 57.801 C 386.000 57.177,386.056 56.661,386.125 56.654 C 387.219 56.546,387.206 56.563,387.299 55.047 C 387.367 53.940,387.439 53.697,387.814 53.316 C 388.622 52.497,388.667 52.379,388.667 51.079 C 388.667 49.905,388.690 49.818,388.986 49.912 C 389.162 49.968,389.354 49.934,389.414 49.837 C 389.474 49.741,389.604 49.712,389.704 49.773 C 389.808 49.837,389.837 49.808,389.773 49.704 C 389.712 49.604,389.727 49.482,389.807 49.433 C 389.888 49.383,389.945 48.609,389.935 47.713 L 389.917 46.083 384.625 46.039 C 379.418 45.996,379.333 46.001,379.333 46.331 C 379.333 46.725,378.828 47.278,378.390 47.362 C 378.047 47.428,378.050 47.418,378.021 48.903 C 378.000 49.955,377.991 49.975,377.490 50.086 C 376.844 50.228,376.667 50.677,376.667 52.178 C 376.667 53.365,376.354 54.000,375.769 54.000 C 375.470 54.000,375.338 54.520,375.336 55.714 C 375.333 56.691,375.263 56.800,374.569 56.902 C 374.216 56.953,374.165 57.167,374.051 59.083 C 373.948 60.825,374.015 60.631,373.497 60.702 C 372.800 60.797,372.719 60.946,372.682 62.198 C 372.642 63.574,372.677 63.475,372.203 63.547 C 371.547 63.648,371.498 63.788,371.381 65.875 C 371.310 67.159,371.262 67.336,370.983 67.354 C 370.035 67.417,370.053 67.384,370.021 69.184 C 370.006 70.051,369.944 70.351,369.792 70.300 C 369.540 70.218,368.875 70.875,368.958 71.125 C 368.991 71.223,368.939 71.352,368.842 71.411 C 368.745 71.471,368.667 72.071,368.667 72.760 C 368.667 74.009,368.614 74.106,367.978 74.026 C 367.849 74.010,367.362 74.536,367.345 74.708 C 367.339 74.777,367.333 75.366,367.333 76.018 C 367.333 76.992,367.290 77.186,367.088 77.108 C 366.805 77.000,366.283 77.451,366.426 77.681 C 366.478 77.766,366.404 77.953,366.261 78.097 C 366.074 78.283,366.000 78.687,366.000 79.512 C 366.000 80.622,365.984 80.667,365.597 80.667 C 365.375 80.667,365.075 80.712,364.930 80.768 C 364.704 80.855,364.667 80.690,364.667 79.613 C 364.667 78.696,364.596 78.287,364.406 78.097 C 364.263 77.953,364.188 77.766,364.241 77.681 C 364.383 77.451,363.861 77.000,363.579 77.108 C 363.377 77.186,363.330 76.977,363.313 75.934 C 363.283 74.121,363.290 74.139,362.538 74.038 C 361.963 73.961,362.019 74.134,361.986 72.340 C 361.956 70.710,361.544 69.819,360.929 70.056 C 360.757 70.122,360.691 69.814,360.637 68.695 C 360.570 67.287,360.552 67.233,359.960 66.659 C 359.382 66.097,359.351 66.012,359.318 64.862 C 359.281 63.613,359.200 63.464,358.503 63.368 C 357.971 63.295,358.025 63.476,357.980 61.612 C 357.959 60.717,357.878 59.944,357.801 59.897 C 357.724 59.849,357.712 59.729,357.773 59.629 C 357.837 59.526,357.808 59.496,357.704 59.560 C 357.604 59.622,357.474 59.593,357.414 59.496 C 357.354 59.399,357.167 59.364,356.999 59.417 C 356.722 59.505,356.684 59.379,356.609 58.132 C 356.563 57.372,356.507 56.647,356.485 56.521 C 356.425 56.185,355.670 55.478,355.489 55.590 C 355.399 55.646,355.325 55.192,355.313 54.510 C 355.282 52.801,355.284 52.805,354.538 52.705 C 353.965 52.628,354.025 52.817,353.980 50.946 C 353.959 50.050,353.878 49.278,353.801 49.230 C 353.724 49.183,353.712 49.062,353.773 48.963 C 353.837 48.859,353.808 48.829,353.704 48.894 C 353.604 48.955,353.474 48.926,353.414 48.829 C 353.354 48.732,353.165 48.698,352.993 48.752 C 352.707 48.843,352.676 48.734,352.632 47.467 L 352.583 46.083 346.814 46.040 C 341.980 46.003,341.012 46.034,340.847 46.234 " stroke="none" fill="#c334fc" fill-rule="evenodd"></path><path id="path3" d="" stroke="none" fill="#1007c60" fill-rule="evenodd"></path><path id="path4" d="" stroke="none" fill="#1007c60" fill-rule="evenodd"></path></g></svg>